<?xml version="1.0" encoding="UTF-8"?>
<svg id="Layer_1" xmlns="http://www.w3.org/2000/svg" version="1.1" viewBox="0 0 4508 2000">
  <!-- Generator: Adobe Illustrator 29.5.0, SVG Export Plug-In . SVG Version: 2.1.0 Build 137)  -->
  <defs>
    <style>
      .st0, .st1 {
        fill: #fff;
      }

      .st1 {
        stroke: #fff;
        stroke-miterlimit: 10;
        stroke-width: 12px;
      }
    </style>
  </defs>
  <g>
    <path class="st0" d="M220.09,1154.42l-.15-4.09c6.47-.19,11.56-5.13,11.37-11.02l-.48-13.89c-9.04-257.34-19.27-549.02,176.84-750.76,2.08-2.13,3.12-4.87,2.93-7.69-.19-2.85-1.59-5.45-3.94-7.34-2.14-1.71-4.91-2.67-7.77-2.67-3.35,0-6.55,1.31-8.77,3.59-202.3,208.07-191.9,504.23-182.74,765.55l.48,13.93c.21,5.78,5.35,10.3,11.72,10.3l.52,4.1Z"/>
    <path class="st0" d="M945.63,1871.18c170.9,0,336.51-55.05,466.32-155.01,4.93-3.8,5.54-10.54,1.37-15.03-4.03-4.37-11.78-4.92-16.53-1.25-125.6,96.71-285.8,149.98-451.08,149.98-82.05,0-162.63-12.98-239.51-38.6-245.57-81.7-428.11-290.04-465.04-530.76-1.11-7.35-2.12-14.68-2.97-22.01-.64-5.44-5.74-9.53-11.86-9.53-4.15.34-6.97,1.73-8.94,3.95-1.97,2.21-2.86,4.98-2.54,7.81.88,7.57,1.9,15.14,3.06,22.74,38.1,248.43,226.6,463.48,480.21,547.84,79.43,26.45,162.7,39.87,247.49,39.87Z"/>
    <path class="st0" d="M1685.79,968.71l-.06-1.81c-1.21-36.52-2.45-74.28-2.72-111.21-1.2-166.78-36.92-296.6-112.43-408.55-134.58-199.5-373.91-323.44-624.6-323.44-168.18,0-332.79,54.52-463.5,153.54-2.41,1.83-3.9,4.4-4.18,7.25-.28,2.84.66,5.6,2.68,7.78,3.96,4.34,11.67,5.02,16.51,1.38,126.53-95.85,285.81-148.62,448.49-148.62,242.59,0,474.24,120.04,604.59,313.28,73.19,108.48,107.82,234.81,108.98,397.54.28,38.43,1.62,78.29,2.8,113.46,3.58,107.87,7.28,219.31-12.74,326.26-22.19,118.63-78.6,230.04-163.17,322.17-2.01,2.18-2.95,4.95-2.68,7.78.28,2.84,1.77,5.41,4.17,7.23,4.82,3.7,12.58,3.03,16.5-1.33,87.25-95.04,145.43-209.93,168.31-332.26,20.41-109.04,16.66-221.58,13.04-330.42Z"/>
    <path class="st0" d="M885.07,201.81c-9.38.8-17.78,1.72-26.14,2.81-240.31,31.02-448.62,188.1-530.73,400.18-2.14,5.56,1.07,11.66,7.17,13.61,5.96,1.89,12.89-1.13,14.96-6.52,79.24-204.68,280.18-356.25,511.91-386.14,8.05-1.05,16.1-1.94,24.21-2.67,6.43-.59,11.14-5.83,10.49-11.67-.61-5.57-5.6-9.61-11.87-9.61Z"/>
    <path class="st0" d="M309.5,714.82c-.64-.07-1.11-.1-1.57-.1-5.82,0-10.61,4.2-11.16,9.78-11.97,123.03-14.03,260.11-6.13,407.43l.06,87.66c22.98,221.67,156.87,416.1,349.43,507.05,5.55,2.63,12.9.52,15.82-4.57,1.44-2.52,1.72-5.4.77-8.12-.94-2.72-2.99-4.94-5.77-6.25-185.52-87.61-314.59-275.03-336.84-489.11l-.02-87.17c-7.87-146.65-5.83-282.99,6.05-405.03.57-5.86-4.2-11.05-10.63-11.57Z"/>
    <path class="st0" d="M1575.15,637.35c-75.63-236.9-303.94-411.97-568.13-435.61h-.02c-6.96,0-12.2,4.13-12.8,9.6-.31,2.83.62,5.6,2.61,7.8,1.99,2.21,4.79,3.58,7.91,3.85,254.72,22.78,474.91,191.71,547.91,420.33,32.02,100.27,30.44,209.08,28.91,314.31l-.02,1.28c-.48,33.81-.97,68.78-.3,102.56,2.34,119.33-.66,257.08-66.35,381.75-106.49,202.1-330.5,332.68-570.67,332.69-14,0-28.14-.47-42.08-1.35-47.78-3.06-95.01-11.17-140.37-24.12-1.14-.33-2.35-.49-3.55-.49-5.13,0-9.62,3.01-11.16,7.47-.94,2.72-.66,5.61.79,8.14,1.45,2.53,3.9,4.39,6.89,5.24,46.98,13.42,96.01,21.84,145.74,25.04,14.73.94,29.41,1.41,43.63,1.41,249.23-.02,481.59-135.36,591.95-344.77,67.89-128.88,71.03-269.59,68.65-391.38-.66-33.95-.16-68.98.32-102.86,1.55-107.11,3.14-217.55-29.84-320.88Z"/>
    <path class="st0" d="M943.53,1720.53c178.48,0,349.79-78.21,458.26-209.2,1.88-2.26,2.69-5.06,2.26-7.88-.44-2.83-2.06-5.32-4.56-7.04-5.07-3.48-12.66-2.43-16.41,2.11-104.1,125.67-268.38,200.68-439.48,200.68-67.61,0-133.59-11.48-196.12-34.13-89.71-32.51-169.15-86.17-229.73-155.18-2.26-2.56-5.59-4.04-9.18-4.04-2.67,0-5.19.81-7.28,2.36-2.47,1.79-4.02,4.33-4.36,7.17-.34,2.83.55,5.62,2.5,7.83,63.11,71.91,145.88,127.82,239.37,161.7,65.27,23.64,134.15,35.63,204.73,35.63Z"/>
    <path class="st0" d="M1445.71,1403.43c-1.27,2.61-1.35,5.51-.21,8.18,1.14,2.66,3.34,4.74,6.19,5.88,5.77,2.31,12.94-.22,15.49-5.45,22.54-46.47,43.36-92.68,50.62-146.94,15.28-192.94,13.03-361.61-7.09-530.59-7.22-108.09-58-210.35-142.99-288.13-2.22-2.02-5.18-3.13-8.31-3.13s-6.07,1.1-8.3,3.11c-4.58,4.15-4.59,10.92-.03,15.08,80.97,74.07,129.36,171.69,136.27,274.9,19.98,167.96,22.23,335.39,7.1,526.71-6.81,50.89-26.94,95.44-48.74,140.39Z"/>
    <path class="st0" d="M425.72,581.71c-64.27,125.19-60.65,263.3-57.15,396.85l.44,16.79c.66,26.07.72,52.4.76,77.85.25,116.13.52,235.97,59.63,348.28,2.74,5.2,10.06,7.47,15.64,5.03,2.84-1.24,4.97-3.39,6-6.08,1.05-2.69.87-5.58-.48-8.15-56.84-108-57.07-220.21-57.31-339-.05-24.29-.09-51.74-.78-78.43l-.44-16.77c-3.45-131.15-6.99-266.68,54.95-387.35,90.47-176.28,290.66-294.76,498.28-295h0s.78-.01.78-.01c108.75,0,218.16,31.28,308.16,88.07,5.19,3.27,12.76,1.97,16.33-2.68,1.78-2.34,2.45-5.17,1.9-7.98-.56-2.79-2.28-5.23-4.85-6.85-93.88-59.25-208.04-91.88-321.47-91.88-216.97,0-426.02,123.49-520.39,307.3Z"/>
    <path class="st0" d="M945.98,349.73c-273.14,0-495.34,207.61-495.34,462.79v371.36c0,255.17,222.2,462.77,495.34,462.77s495.34-207.6,495.34-462.77v-371.36c0-255.18-222.2-462.79-495.34-462.79ZM1417.88,1183.87c0,243.41-211.68,441.44-471.89,441.44s-471.89-198.02-471.89-441.44v-371.36c0-243.42,211.68-441.46,471.89-441.46s471.89,198.03,471.89,441.46v371.36Z"/>
  </g>
  <g>
    <polygon class="st0" points="1331.91 403.06 1331.91 568.32 1022.36 566.74 1022.36 1513.42 943.88 1595.78 943.83 1595.78 865.7 1515 865.7 568.32 556.85 568.32 556.85 403.06 1331.91 403.06"/>
    <polygon class="st0" points="1192.27 915.74 1192.27 652.94 1166.95 652.94 1166.95 926.38 1331.48 1090.15 1331.48 1323.01 943.9 1710.56 943.9 1624.23 1048.38 1521.89 1048.38 922.18 1167.55 1040.82 1168.41 1355.34 1193.83 1382.58 1193.83 1031.06 1048.96 886.87 1048.96 593.64 1331.91 593.64 1331.91 1054.75 1192.27 915.74"/>
    <polygon class="st0" points="839.37 1521.89 943.85 1624.23 943.85 1710.56 556.3 1323.01 556.3 922.18 675.47 1040.82 676.32 1355.34 701.72 1382.58 701.72 1031.06 556.85 886.87 556.85 593.64 839.8 593.64 839.8 1054.75 700.19 915.74 700.19 652.94 674.86 652.94 674.86 926.38 839.37 1090.15 839.37 1521.89"/>
  </g>
  <path class="st1" d="M1963.5,1098.1c-29.35-32.56-44.01-79.25-44.01-140.09v-42.94h111.64v51.53c0,48.68,20.4,73,61.19,73,20.03,0,35.24-5.9,45.62-17.71,10.37-11.81,15.57-30.95,15.57-57.43,0-31.48-7.16-59.21-21.47-83.2-14.33-23.97-40.79-52.77-79.44-86.41-48.68-42.94-82.66-81.75-101.98-116.47-19.32-34.7-28.98-73.88-28.98-117.55,0-59.39,15.03-105.37,45.09-137.94,30.06-32.56,73.7-48.84,130.96-48.84s99.3,16.29,128.28,48.84c28.98,32.57,43.48,79.27,43.48,140.09v31.13h-111.64v-38.65c0-25.76-5.02-44.55-15.03-56.36-10.03-11.81-24.69-17.71-44.01-17.71-39.37,0-59.04,23.99-59.04,71.92,0,27.21,7.33,52.6,22.01,76.22,14.66,23.62,41.33,52.25,79.97,85.88,49.38,42.94,83.36,81.95,101.98,117.01,18.6,35.07,27.91,76.22,27.91,123.45,0,61.56-15.21,108.79-45.62,141.7-30.43,32.92-74.61,49.38-132.57,49.38s-100.56-16.27-129.89-48.84Z"/>
  <path class="st1" d="M2521.71,492.12h-123.45v-107.35h364.98v107.35h-123.45v644.09h-118.08V492.12Z"/>
  <path class="st1" d="M2933.92,1098.1c-29.35-32.56-44.01-79.25-44.01-140.09v-42.94h111.64v51.53c0,48.68,20.4,73,61.19,73,20.03,0,35.24-5.9,45.62-17.71,10.37-11.81,15.57-30.95,15.57-57.43,0-31.48-7.16-59.21-21.47-83.2-14.33-23.97-40.79-52.77-79.44-86.41-48.68-42.94-82.66-81.75-101.98-116.47-19.32-34.7-28.98-73.88-28.98-117.55,0-59.39,15.03-105.37,45.09-137.94,30.06-32.56,73.7-48.84,130.96-48.84s99.3,16.29,128.28,48.84c28.98,32.57,43.48,79.27,43.48,140.09v31.13h-111.64v-38.65c0-25.76-5.02-44.55-15.03-56.36-10.03-11.81-24.69-17.71-44.01-17.71-39.37,0-59.04,23.99-59.04,71.92,0,27.21,7.33,52.6,22.01,76.22,14.66,23.62,41.33,52.25,79.97,85.88,49.38,42.94,83.36,81.95,101.98,117.01,18.6,35.07,27.91,76.22,27.91,123.45,0,61.56-15.21,108.79-45.62,141.7-30.43,32.92-74.61,49.38-132.57,49.38s-100.56-16.27-129.89-48.84Z"/>
  <path class="st1" d="M3661.73,384.77h118.08v751.44h-118.08V384.77Z"/>
  <path class="st1" d="M4050.31,492.12h-123.45v-107.35h364.98v107.35h-123.45v644.09h-118.08V492.12Z"/>
  <g>
    <rect class="st0" x="1816.31" y="1302.17" width="2582.75" height="18.64"/>
    <g>
      <path class="st0" d="M1841.1,1583.07l-6.88,35.98h-18.34l34.13-178.62h28.78l34.13,178.62h-19.87l-6.88-35.98h-45.08ZM1843.65,1565.97h39.74l-20.12-103.09-19.61,103.09Z"/>
      <path class="st0" d="M2088.43,1483.55v16.08h-18.85v-17.1c0-16.08-6.37-25.77-20.89-25.77s-20.89,9.7-20.89,25.77v94.42c0,16.08,6.62,25.77,20.89,25.77s20.89-9.7,20.89-25.77v-23.22h18.85v22.2c0,27.05-12.74,44.91-40.25,44.91s-39.99-17.86-39.99-44.91v-92.37c0-27.05,12.74-44.91,39.99-44.91s40.25,17.86,40.25,44.91Z"/>
      <path class="st0" d="M2147.52,1583.07l-6.88,35.98h-18.34l34.13-178.62h28.78l34.13,178.62h-19.87l-6.88-35.98h-45.08ZM2150.07,1565.97h39.74l-20.12-103.09-19.61,103.09Z"/>
      <path class="st0" d="M2255.78,1619.05v-178.62h19.87v160.5h50.94v18.12h-70.81Z"/>
      <path class="st0" d="M2362.5,1619.05v-178.62h19.87v160.5h50.94v18.12h-70.81Z"/>
      <path class="st0" d="M2458.27,1520.81h48.65v17.86h-48.65v-17.86Z"/>
      <path class="st0" d="M2565,1583.07l-6.88,35.98h-18.34l34.13-178.62h28.78l34.13,178.62h-19.87l-6.88-35.98h-45.08ZM2567.55,1565.97h39.74l-20.12-103.09-19.61,103.09Z"/>
      <path class="st0" d="M2669.95,1520.81h48.65v17.86h-48.65v-17.86Z"/>
      <path class="st0" d="M2776.68,1619.05v-160.5h-32.86v-18.12h85.33v18.12h-32.86v160.5h-19.61Z"/>
      <path class="st0" d="M2926.96,1519.53v17.86h-43.56v63.54h53.49v18.12h-73.36v-178.62h73.36v18.12h-53.49v60.99h43.56Z"/>
      <path class="st0" d="M3006.43,1541.48l-10.44,17.61v59.97h-19.87v-178.62h19.87v86.25l47.38-86.25h20.12l-45.08,81.4,46.61,97.22h-20.38l-38.21-77.57Z"/>
      <path class="st0" d="M3161.55,1619.05v-178.62h19.87v160.5h50.94v18.12h-70.81Z"/>
      <path class="st0" d="M3268.27,1619.05v-178.62h19.87v160.5h50.94v18.12h-70.81Z"/>
      <path class="st0" d="M3453.71,1483.55v16.08h-18.85v-17.1c0-16.08-6.37-25.77-20.89-25.77s-20.89,9.7-20.89,25.77v94.42c0,16.08,6.62,25.77,20.89,25.77s20.89-9.7,20.89-25.77v-23.22h18.85v22.2c0,27.05-12.74,44.91-40.25,44.91s-39.99-17.86-39.99-44.91v-92.37c0-27.05,12.74-44.91,39.99-44.91s40.25,17.86,40.25,44.91Z"/>
      <path class="st0" d="M3631.75,1483.55v16.08h-18.85v-17.1c0-16.08-6.37-25.77-20.89-25.77s-20.89,9.7-20.89,25.77v94.42c0,16.08,6.62,25.77,20.89,25.77s20.89-9.7,20.89-25.77v-23.22h18.85v22.2c0,27.05-12.74,44.91-40.25,44.91s-39.99-17.86-39.99-44.91v-92.37c0-27.05,12.74-44.91,39.99-44.91s40.25,17.86,40.25,44.91Z"/>
      <path class="st0" d="M3669.19,1483.55c0-27.3,13.5-44.91,40.76-44.91s41.01,17.61,41.01,44.91v92.37c0,27.05-13.5,44.91-41.01,44.91s-40.76-17.86-40.76-44.91v-92.37ZM3688.8,1576.94c0,16.33,6.88,25.77,21.14,25.77s21.14-9.44,21.14-25.77v-94.42c0-16.08-6.62-25.77-21.14-25.77s-21.14,9.7-21.14,25.77v94.42Z"/>
      <path class="st0" d="M3856.41,1618.79h-19.1l-29.55-142.13v142.39h-17.32v-178.62h27.77l29.29,142.64,28.27-142.64h27.76v178.62h-18.85v-143.66l-28.27,143.41Z"/>
      <path class="st0" d="M3983.76,1440.43c28.02,0,39.99,16.59,39.99,43.63v21.44c0,28.32-13.25,43.12-41.52,43.12h-17.58v70.43h-19.87v-178.62h38.97ZM3982.24,1530.76c14.77,0,21.91-6.89,21.91-23.99v-23.73c0-16.33-5.86-24.5-20.38-24.5h-19.1v72.21h17.58Z"/>
      <path class="st0" d="M4076.99,1583.07l-6.88,35.98h-18.34l34.13-178.62h28.78l34.13,178.62h-19.87l-6.88-35.98h-45.08ZM4079.54,1565.97h39.74l-20.12-103.09-19.61,103.09Z"/>
      <path class="st0" d="M4202.82,1619.05h-17.83v-178.62h25.22l41.26,129.12v-129.12h17.58v178.62h-20.63l-45.6-144.43v144.43Z"/>
      <path class="st0" d="M4341.9,1555l-37.7-114.57h20.63l27.77,87.78,28.02-87.78h18.85l-37.95,114.57v64.05h-19.61v-64.05Z"/>
    </g>
  </g>
</svg>