<?xml version="1.0" encoding="utf-8"?>
<!-- Generator: Adobe Illustrator 28.0.0, SVG Export Plug-In . SVG Version: 6.00 Build 0)  -->
<svg version="1.1" id="Layer_1" xmlns="http://www.w3.org/2000/svg" xmlns:xlink="http://www.w3.org/1999/xlink" x="0px" y="0px"
	 viewBox="0 0 2000 2000" style="enable-background:new 0 0 2000 2000;" xml:space="preserve">
<style type="text/css">
	.st0{fill:#178890;}
	.st1{fill:#07212C;}
	.st2{fill:#07212C;stroke:#178890;stroke-width:9;stroke-miterlimit:10;}
	.st3{fill:#07212C;stroke:#178890;stroke-width:5;stroke-miterlimit:10;}
	.st4{fill:#07212C;stroke:#178890;stroke-width:6;stroke-miterlimit:10;}
	.st5{fill:#FFFFFF;}
	.st6{fill:#004D62;}
	.st7{stroke:#000000;stroke-width:9;stroke-miterlimit:10;}
	.st8{fill:#FFFFFF;stroke:#FFFFFF;stroke-width:9;stroke-miterlimit:10;}
	.st9{fill:#FFFFFF;stroke:#FFFFFF;stroke-width:6;stroke-miterlimit:10;}
	.st10{stroke:#000000;stroke-width:6;stroke-miterlimit:10;}
</style>
<g>
	<g>
		<g>
			<g>
				<path class="st0" d="M273.7,1157.45l-0.15-4.09c6.47-0.19,11.56-5.13,11.37-11.02l-0.48-13.89
					c-9.04-257.34-19.27-549.02,176.84-750.76c2.08-2.13,3.12-4.87,2.93-7.69c-0.19-2.85-1.59-5.45-3.94-7.34
					c-2.14-1.71-4.91-2.67-7.77-2.67c-3.35,0-6.55,1.31-8.77,3.59c-202.3,208.07-191.9,504.23-182.74,765.55l0.48,13.93
					c0.21,5.78,5.35,10.3,11.72,10.3L273.7,1157.45z"/>
				<path class="st0" d="M999.24,1874.21c170.9,0,336.51-55.05,466.32-155.01c4.93-3.8,5.54-10.54,1.37-15.03
					c-4.03-4.37-11.78-4.92-16.53-1.25c-125.6,96.71-285.8,149.98-451.08,149.98c-82.05,0-162.63-12.98-239.51-38.6
					c-245.57-81.7-428.11-290.04-465.04-530.76c-1.11-7.35-2.12-14.68-2.97-22.01c-0.64-5.44-5.74-9.53-11.86-9.53
					c-4.15,0.34-6.97,1.73-8.94,3.95c-1.97,2.21-2.86,4.98-2.54,7.81c0.88,7.57,1.9,15.14,3.06,22.74
					c38.1,248.43,226.6,463.48,480.21,547.84C831.18,1860.79,914.45,1874.21,999.24,1874.21z"/>
				<path class="st0" d="M1739.4,971.74l-0.06-1.81c-1.21-36.52-2.45-74.28-2.72-111.21c-1.2-166.78-36.92-296.6-112.43-408.55
					c-134.58-199.5-373.91-323.44-624.6-323.44c-168.18,0-332.79,54.52-463.5,153.54c-2.41,1.83-3.9,4.4-4.18,7.25
					c-0.28,2.84,0.66,5.6,2.68,7.78c3.96,4.34,11.67,5.02,16.51,1.38c126.53-95.85,285.81-148.62,448.49-148.62
					c242.59,0,474.24,120.04,604.59,313.28c73.19,108.48,107.82,234.81,108.98,397.54c0.28,38.43,1.62,78.29,2.8,113.46
					c3.58,107.87,7.28,219.31-12.74,326.26c-22.19,118.63-78.6,230.04-163.17,322.17c-2.01,2.18-2.95,4.95-2.68,7.78
					c0.28,2.84,1.77,5.41,4.17,7.23c4.82,3.7,12.58,3.03,16.5-1.33c87.25-95.04,145.43-209.93,168.31-332.26
					C1746.76,1193.12,1743.02,1080.58,1739.4,971.74z"/>
				<path class="st0" d="M938.67,204.84c-9.38,0.8-17.78,1.72-26.14,2.81C672.22,238.68,463.9,395.76,381.8,607.84
					c-2.14,5.56,1.07,11.66,7.17,13.61c5.96,1.89,12.89-1.13,14.96-6.52c79.24-204.68,280.18-356.25,511.91-386.14
					c8.05-1.05,16.1-1.94,24.21-2.67c6.43-0.59,11.14-5.83,10.49-11.67C949.93,208.89,944.94,204.84,938.67,204.84z"/>
				<path class="st0" d="M363.11,717.85c-0.64-0.07-1.11-0.1-1.57-0.1c-5.82,0-10.61,4.2-11.16,9.78
					c-11.97,123.03-14.03,260.11-6.13,407.43l0.06,87.66c22.98,221.67,156.87,416.1,349.43,507.05c5.55,2.63,12.9,0.52,15.82-4.57
					c1.44-2.52,1.72-5.4,0.77-8.12c-0.94-2.72-2.99-4.94-5.77-6.25c-185.52-87.61-314.59-275.03-336.84-489.11l-0.02-87.17
					c-7.87-146.65-5.83-282.99,6.05-405.03C374.32,723.55,369.55,718.37,363.11,717.85z"/>
				<path class="st0" d="M1628.75,640.38c-75.63-236.9-303.94-411.97-568.13-435.61c0,0-0.01,0-0.02,0c-6.96,0-12.2,4.13-12.8,9.6
					c-0.31,2.83,0.62,5.6,2.61,7.8c1.99,2.21,4.79,3.58,7.91,3.85c254.72,22.78,474.91,191.71,547.91,420.33
					c32.02,100.27,30.44,209.08,28.91,314.31l-0.02,1.28c-0.48,33.81-0.97,68.78-0.3,102.56c2.34,119.33-0.66,257.08-66.35,381.75
					c-106.49,202.1-330.5,332.68-570.67,332.69c-14,0-28.14-0.47-42.08-1.35c-47.78-3.06-95.01-11.17-140.37-24.12
					c-1.14-0.33-2.35-0.49-3.55-0.49c-5.13,0-9.62,3.01-11.16,7.47c-0.94,2.72-0.66,5.61,0.79,8.14c1.45,2.53,3.9,4.39,6.89,5.24
					c46.98,13.42,96.01,21.84,145.74,25.04c14.73,0.94,29.41,1.41,43.63,1.41c249.23-0.02,481.59-135.36,591.95-344.77
					c67.89-128.88,71.03-269.59,68.65-391.38c-0.66-33.95-0.16-68.98,0.32-102.86C1660.14,854.15,1661.74,743.71,1628.75,640.38z"/>
				<path class="st0" d="M997.14,1723.56c178.48,0,349.79-78.21,458.26-209.2c1.88-2.26,2.69-5.06,2.26-7.88
					c-0.44-2.83-2.06-5.32-4.56-7.04c-5.07-3.48-12.66-2.43-16.41,2.11c-104.1,125.67-268.38,200.68-439.48,200.68
					c-67.61,0-133.59-11.48-196.12-34.13c-89.71-32.51-169.15-86.17-229.73-155.18c-2.26-2.56-5.59-4.04-9.18-4.04
					c-2.67,0-5.19,0.81-7.28,2.36c-2.47,1.79-4.02,4.33-4.36,7.17c-0.34,2.83,0.55,5.62,2.5,7.83
					c63.11,71.91,145.88,127.82,239.37,161.7C857.68,1711.57,926.56,1723.56,997.14,1723.56z"/>
				<path class="st0" d="M1499.32,1406.46c-1.27,2.61-1.35,5.51-0.21,8.18c1.14,2.66,3.34,4.74,6.19,5.88
					c5.77,2.31,12.94-0.22,15.49-5.45c22.54-46.47,43.36-92.68,50.62-146.94c15.28-192.94,13.03-361.61-7.09-530.59
					c-7.22-108.09-58-210.35-142.99-288.13c-2.22-2.02-5.18-3.13-8.31-3.13c-3.13,0-6.07,1.1-8.3,3.11
					c-4.58,4.15-4.59,10.92-0.03,15.08c80.97,74.07,129.36,171.69,136.27,274.9c19.98,167.96,22.23,335.39,7.1,526.71
					C1541.25,1316.97,1521.12,1361.52,1499.32,1406.46z"/>
				<path class="st0" d="M479.33,584.74c-64.27,125.19-60.65,263.3-57.15,396.85l0.44,16.79c0.66,26.07,0.72,52.4,0.76,77.85
					c0.25,116.13,0.52,235.97,59.63,348.28c2.74,5.2,10.06,7.47,15.64,5.03c2.84-1.24,4.97-3.39,6-6.07
					c1.05-2.69,0.87-5.58-0.48-8.15c-56.84-108-57.07-220.21-57.31-339c-0.05-24.29-0.09-51.74-0.78-78.43l-0.44-16.77
					c-3.45-131.15-6.99-266.68,54.95-387.35c90.47-176.28,290.66-294.76,498.28-295v-0.01h0.78c108.75,0,218.16,31.28,308.16,88.07
					c5.19,3.27,12.76,1.97,16.33-2.68c1.78-2.34,2.45-5.17,1.9-7.98c-0.56-2.79-2.28-5.23-4.85-6.85
					c-93.88-59.25-208.04-91.88-321.47-91.88C782.75,277.44,573.7,400.93,479.33,584.74z"/>
				<path class="st0" d="M999.59,352.76c-273.14,0-495.34,207.61-495.34,462.79v371.36c0,255.17,222.2,462.77,495.34,462.77
					s495.34-207.6,495.34-462.77V815.55C1494.93,560.37,1272.73,352.76,999.59,352.76z M1471.49,1186.91
					c0,243.41-211.68,441.44-471.89,441.44S527.7,1430.32,527.7,1186.91V815.55c0-243.42,211.68-441.46,471.89-441.46
					s471.89,198.03,471.89,441.46V1186.91z"/>
			</g>
			<g>
				<polygon class="st1" points="1385.52,406.09 1385.52,571.35 1075.97,569.77 1075.97,1516.45 997.48,1598.81 997.43,1598.81 
					919.3,1518.03 919.3,571.35 610.46,571.35 610.46,406.09 				"/>
				<polygon class="st1" points="1245.88,918.77 1245.88,655.97 1220.56,655.97 1220.56,929.41 1385.09,1093.18 1385.09,1326.04 
					997.51,1713.59 997.51,1627.26 1101.99,1524.92 1101.99,925.21 1221.16,1043.85 1222.01,1358.38 1247.44,1385.61 
					1247.44,1034.09 1102.57,889.9 1102.57,596.67 1385.52,596.67 1385.52,1057.78 				"/>
				<polygon class="st1" points="892.98,1524.92 997.46,1627.26 997.46,1713.59 609.91,1326.04 609.91,925.21 729.07,1043.85 
					729.93,1358.38 755.33,1385.61 755.33,1034.09 610.46,889.9 610.46,596.67 893.4,596.67 893.4,1057.78 753.79,918.77 
					753.79,655.97 728.47,655.97 728.47,929.41 892.98,1093.18 				"/>
			</g>
		</g>
	</g>
</g>
</svg>
